<svg width="197" height="49" viewBox="0 0 197 49" fill="none" xmlns="http://www.w3.org/2000/svg">
<g clip-path="url(#clip0_1524_461)">
<path d="M18.4096 22.9196V25.4128H24.3691C24.1867 26.8115 23.7204 27.8351 23.011 28.5547C22.1394 29.4263 20.7813 30.379 18.4096 30.379C14.7407 30.379 11.8725 27.4196 11.8725 23.7507C11.8725 20.0817 14.7407 17.1223 18.4096 17.1223C20.386 17.1223 21.8353 17.9027 22.8995 18.9061L24.6529 17.1527C23.1731 15.7135 21.1867 14.6189 18.4096 14.6189C13.3826 14.6189 9.15625 18.7135 9.15625 23.7405C9.15625 28.7675 13.3826 32.8621 18.4096 32.8621C21.1258 32.8621 23.1731 31.9702 24.7745 30.3081C26.4164 28.6662 26.9333 26.3452 26.9333 24.4804C26.9333 23.9027 26.8927 23.3655 26.8015 22.9196H18.4096Z" fill="white"/>
<path d="M34.3827 20.8926C31.1293 20.8926 28.4739 23.3656 28.4739 26.7811C28.4739 30.1662 31.1293 32.6696 34.3827 32.6696C37.636 32.6696 40.2914 30.1764 40.2914 26.7811C40.2914 23.3656 37.636 20.8926 34.3827 20.8926ZM34.3827 30.3487C32.5989 30.3487 31.0583 28.8791 31.0583 26.7811C31.0583 24.6628 32.5989 23.2135 34.3827 23.2135C36.1664 23.2135 37.707 24.6628 37.707 26.7811C37.707 28.8791 36.1664 30.3487 34.3827 30.3487Z" fill="white"/>
<path d="M47.5583 20.8926C44.3049 20.8926 41.6495 23.3656 41.6495 26.7811C41.6495 30.1662 44.3049 32.6696 47.5583 32.6696C50.8117 32.6696 53.4671 30.1764 53.4671 26.7811C53.4671 23.3656 50.8117 20.8926 47.5583 20.8926ZM47.5583 30.3487C45.7745 30.3487 44.234 28.8791 44.234 26.7811C44.234 24.6628 45.7745 23.2135 47.5583 23.2135C49.3421 23.2135 50.8826 24.6628 50.8826 26.7811C50.8826 28.8791 49.3421 30.3487 47.5583 30.3487Z" fill="white"/>
<path d="M63.3489 22.2101H63.2577C62.68 21.521 61.5651 20.8926 60.1563 20.8926C57.2171 20.8926 54.653 23.4568 54.653 26.7811C54.653 30.0851 57.2171 32.6696 60.1563 32.6696C61.5651 32.6696 62.68 32.0412 63.2577 31.3318H63.3489V32.1527C63.3489 34.4027 62.1428 35.6088 60.207 35.6088C58.6259 35.6088 57.6428 34.4737 57.2374 33.5108L54.9874 34.4433C55.6361 36.0041 57.3489 37.9196 60.207 37.9196C63.2374 37.9196 65.8016 36.1358 65.8016 31.7878V21.1966H63.3489V22.2101ZM60.3793 30.3487C58.5955 30.3487 57.2374 28.8284 57.2374 26.7811C57.2374 24.7034 58.5955 23.2135 60.3793 23.2135C62.1428 23.2135 63.5212 24.7338 63.5212 26.8014C63.5313 28.8588 62.1428 30.3487 60.3793 30.3487Z" fill="white"/>
<path d="M67.8286 14.8621H70.3725V32.6695H67.8286V14.8621Z" fill="white"/>
<path d="M78.2272 30.3487C76.9097 30.3487 75.9772 29.7507 75.3691 28.5649L83.2441 25.3115L82.9806 24.6426C82.4941 23.325 80.9941 20.8926 77.9435 20.8926C74.9131 20.8926 72.3894 23.2743 72.3894 26.7811C72.3894 30.0851 74.8826 32.6696 78.2272 32.6696C80.9232 32.6696 82.484 31.0176 83.1326 30.0649L81.1259 28.727C80.457 29.7 79.5448 30.3487 78.2272 30.3487ZM78.0448 23.102C79.0887 23.102 79.9806 23.6392 80.2745 24.3993L74.9536 26.5987C74.9536 24.1257 76.707 23.102 78.0448 23.102Z" fill="white"/>
</g>
<path d="M90.7155 31.781V16.279H96.0556C97.2611 16.279 98.181 16.353 98.8155 16.5011C99.7037 16.7055 100.462 17.0756 101.089 17.6114C101.907 18.3022 102.517 19.187 102.918 20.2655C103.327 21.3371 103.532 22.5637 103.532 23.9454C103.532 25.1227 103.394 26.166 103.119 27.0754C102.844 27.9848 102.492 28.7391 102.062 29.3383C101.632 29.9305 101.159 30.3993 100.645 30.7447C100.137 31.0831 99.5204 31.3404 98.7943 31.5166C98.0753 31.6929 97.247 31.781 96.3094 31.781H90.7155ZM92.767 29.9516H96.0767C97.0989 29.9516 97.899 29.8565 98.4771 29.6661C99.0622 29.4758 99.5275 29.2079 99.8729 28.8625C100.359 28.3761 100.736 27.724 101.004 26.9062C101.279 26.0814 101.417 25.0839 101.417 23.9137C101.417 22.2923 101.149 21.048 100.613 20.181C100.084 19.3068 99.4394 18.7217 98.678 18.4256C98.1282 18.2141 97.2434 18.1084 96.0239 18.1084H92.767V29.9516ZM113.81 28.1646L115.777 28.4078C115.467 29.5569 114.892 30.4486 114.053 31.0831C113.214 31.7176 112.143 32.0348 110.839 32.0348C109.196 32.0348 107.892 31.5307 106.926 30.5227C105.967 29.5075 105.488 28.087 105.488 26.2612C105.488 24.3719 105.974 22.9056 106.947 21.8623C107.92 20.8189 109.182 20.2973 110.733 20.2973C112.234 20.2973 113.461 20.8084 114.413 21.8306C115.364 22.8527 115.84 24.2908 115.84 26.1449C115.84 26.2577 115.837 26.4269 115.83 26.6525H107.455C107.525 27.8861 107.874 28.8308 108.502 29.4864C109.129 30.142 109.911 30.4698 110.849 30.4698C111.547 30.4698 112.143 30.2865 112.636 29.9199C113.13 29.5533 113.521 28.9682 113.81 28.1646ZM107.56 25.0874H113.831C113.746 24.1428 113.507 23.4343 113.112 22.962C112.506 22.2289 111.72 21.8623 110.754 21.8623C109.88 21.8623 109.143 22.1548 108.544 22.7399C107.952 23.3251 107.624 24.1076 107.56 25.0874ZM125.865 28.1646L127.831 28.4078C127.521 29.5569 126.947 30.4486 126.108 31.0831C125.269 31.7176 124.197 32.0348 122.893 32.0348C121.251 32.0348 119.947 31.5307 118.981 30.5227C118.022 29.5075 117.543 28.087 117.543 26.2612C117.543 24.3719 118.029 22.9056 119.002 21.8623C119.975 20.8189 121.237 20.2973 122.788 20.2973C124.289 20.2973 125.516 20.8084 126.467 21.8306C127.419 22.8527 127.895 24.2908 127.895 26.1449C127.895 26.2577 127.891 26.4269 127.884 26.6525H119.509C119.58 27.8861 119.929 28.8308 120.556 29.4864C121.184 30.142 121.966 30.4698 122.904 30.4698C123.602 30.4698 124.197 30.2865 124.691 29.9199C125.184 29.5533 125.576 28.9682 125.865 28.1646ZM119.615 25.0874H125.886C125.801 24.1428 125.562 23.4343 125.167 22.962C124.56 22.2289 123.774 21.8623 122.809 21.8623C121.935 21.8623 121.198 22.1548 120.599 22.7399C120.006 23.3251 119.679 24.1076 119.615 25.0874ZM130.232 36.0848V20.5511H131.966V22.0103C132.375 21.4393 132.837 21.0128 133.351 20.7308C133.866 20.4418 134.49 20.2973 135.223 20.2973C136.182 20.2973 137.028 20.544 137.761 21.0375C138.494 21.5309 139.047 22.2289 139.421 23.1312C139.795 24.0265 139.981 25.0099 139.981 26.0814C139.981 27.2305 139.773 28.2668 139.358 29.1903C138.949 30.1067 138.349 30.8117 137.56 31.3052C136.777 31.7916 135.953 32.0348 135.085 32.0348C134.451 32.0348 133.88 31.9008 133.372 31.633C132.872 31.3651 132.46 31.0267 132.135 30.6178V36.0848H130.232ZM131.955 26.2295C131.955 27.6746 132.248 28.7426 132.833 29.4335C133.418 30.1244 134.127 30.4698 134.959 30.4698C135.805 30.4698 136.527 30.1138 137.126 29.4018C137.733 28.6827 138.036 27.5724 138.036 26.0709C138.036 24.6398 137.74 23.5683 137.147 22.8563C136.562 22.1443 135.861 21.7883 135.043 21.7883C134.232 21.7883 133.513 22.1689 132.886 22.9303C132.266 23.6846 131.955 24.7843 131.955 26.2295ZM142.466 31.781V16.279H145.554L149.223 27.2552C149.562 28.2774 149.808 29.0423 149.964 29.5498C150.14 28.9859 150.415 28.1575 150.788 27.0648L154.5 16.279H157.26V31.781H155.282V18.8063L150.778 31.781H148.927L144.444 18.5842V31.781H142.466ZM160.337 18.4679V16.279H162.24V18.4679H160.337ZM160.337 31.781V20.5511H162.24V31.781H160.337ZM165.148 31.781V20.5511H166.861V22.1478C167.686 20.9141 168.878 20.2973 170.436 20.2973C171.112 20.2973 171.733 20.4206 172.297 20.6674C172.868 20.9071 173.294 21.2243 173.576 21.6191C173.858 22.0138 174.055 22.4826 174.168 23.0255C174.239 23.3779 174.274 23.9948 174.274 24.876V31.781H172.371V24.95C172.371 24.1745 172.297 23.5965 172.149 23.2158C172.001 22.8281 171.736 22.5214 171.355 22.2958C170.982 22.0632 170.541 21.9469 170.034 21.9469C169.223 21.9469 168.522 22.2042 167.929 22.7188C167.344 23.2334 167.052 24.2098 167.052 25.6479V31.781H165.148ZM184.489 31.781V30.364C183.777 31.4779 182.73 32.0348 181.348 32.0348C180.453 32.0348 179.628 31.7881 178.874 31.2946C178.127 30.8011 177.545 30.1138 177.129 29.2326C176.72 28.3443 176.516 27.3257 176.516 26.1766C176.516 25.0557 176.703 24.0406 177.076 23.1312C177.45 22.2148 178.01 21.5133 178.758 21.0269C179.505 20.5405 180.34 20.2973 181.264 20.2973C181.94 20.2973 182.543 20.4418 183.072 20.7308C183.601 21.0128 184.031 21.3829 184.362 21.8411V16.279H186.255V31.781H184.489ZM178.472 26.1766C178.472 27.6147 178.775 28.6898 179.381 29.4018C179.988 30.1138 180.703 30.4698 181.528 30.4698C182.36 30.4698 183.065 30.1314 183.643 29.4547C184.228 28.7708 184.521 27.731 184.521 26.3352C184.521 24.7984 184.224 23.6705 183.632 22.9514C183.04 22.2324 182.31 21.8728 181.443 21.8728C180.597 21.8728 179.889 22.2183 179.318 22.9091C178.754 23.6 178.472 24.6891 178.472 26.1766Z" fill="white"/>
<defs>
<clipPath id="clip0_1524_461">
<rect width="75" height="29" fill="white" transform="translate(9.0448 12.281)"/>
</clipPath>
</defs>
</svg>
