<svg width="24" height="24" viewBox="0 0 24 24" fill="none" xmlns="http://www.w3.org/2000/svg">
<path fill-rule="evenodd" clip-rule="evenodd" d="M12 20.5C13.894 20.5 15.643 19.88 17.055 18.834C16.6348 17.8537 15.9386 17.0168 15.0513 16.425C14.164 15.8333 13.1237 15.5123 12.0572 15.5012C10.9907 15.4901 9.94402 15.7893 9.04452 16.3623C8.14502 16.9354 7.43156 17.7577 6.991 18.729C6.97549 18.7633 6.95744 18.7964 6.937 18.828C8.40039 19.9164 10.1763 20.5028 12 20.5ZM16.079 15.311C16.9792 15.9565 17.7133 16.8065 18.221 17.791C19.3488 16.5795 20.0984 15.065 20.3777 13.4334C20.6569 11.8019 20.4537 10.1243 19.793 8.60665C19.1324 7.08896 18.0429 5.7972 16.6585 4.88994C15.274 3.98267 13.6548 3.49937 11.9995 3.49937C10.3442 3.49937 8.725 3.98267 7.34054 4.88994C5.95608 5.7972 4.86664 7.08896 4.20595 8.60665C3.54526 10.1243 3.34208 11.8019 3.62134 13.4334C3.90061 15.065 4.65016 16.5795 5.778 17.791C6.2388 16.8976 6.88662 16.114 7.67738 15.4933C8.46813 14.8727 9.38328 14.4297 10.3606 14.1944C11.3379 13.9591 12.3544 13.937 13.341 14.1297C14.3275 14.3224 15.2611 14.7253 16.078 15.311H16.079ZM12 22C17.523 22 22 17.523 22 12C22 6.477 17.523 2 12 2C6.477 2 2 6.477 2 12C2 17.523 6.477 22 12 22ZM14 9.5C14 10.0304 13.7893 10.5391 13.4142 10.9142C13.0391 11.2893 12.5304 11.5 12 11.5C11.4696 11.5 10.9609 11.2893 10.5858 10.9142C10.2107 10.5391 10 10.0304 10 9.5C10 8.96957 10.2107 8.46086 10.5858 8.08579C10.9609 7.71071 11.4696 7.5 12 7.5C12.5304 7.5 13.0391 7.71071 13.4142 8.08579C13.7893 8.46086 14 8.96957 14 9.5ZM15.5 9.5C15.5 9.95963 15.4095 10.4148 15.2336 10.8394C15.0577 11.264 14.7999 11.6499 14.4749 11.9749C14.1499 12.2999 13.764 12.5577 13.3394 12.7336C12.9148 12.9095 12.4596 13 12 13C11.5404 13 11.0852 12.9095 10.6606 12.7336C10.236 12.5577 9.85013 12.2999 9.52513 11.9749C9.20012 11.6499 8.94231 11.264 8.76642 10.8394C8.59053 10.4148 8.5 9.95963 8.5 9.5C8.5 8.57174 8.86875 7.6815 9.52513 7.02513C10.1815 6.36875 11.0717 6 12 6C12.9283 6 13.8185 6.36875 14.4749 7.02513C15.1313 7.6815 15.5 8.57174 15.5 9.5Z" fill="#030303"/>
</svg>
