<svg width="25" height="24" viewBox="0 0 25 24" fill="none" xmlns="http://www.w3.org/2000/svg">
<path d="M12.39 16.5C13.22 16.5 13.89 17.17 13.89 18C13.89 18.83 13.22 19.5 12.39 19.5C11.56 19.5 10.89 18.83 10.89 18C10.89 17.17 11.56 16.5 12.39 16.5ZM10.89 12C10.89 12.83 11.56 13.5 12.39 13.5C13.22 13.5 13.89 12.83 13.89 12C13.89 11.17 13.22 10.5 12.39 10.5C11.56 10.5 10.89 11.17 10.89 12ZM10.89 6C10.89 6.83 11.56 7.5 12.39 7.5C13.22 7.5 13.89 6.83 13.89 6C13.89 5.17 13.22 4.5 12.39 4.5C11.56 4.5 10.89 5.17 10.89 6Z" fill="black"/>
</svg>
