<svg width="24" height="24" viewBox="0 0 24 24" fill="none" xmlns="http://www.w3.org/2000/svg">
<path fill-rule="evenodd" clip-rule="evenodd" d="M12 7.74998L11.228 7.28598L7.042 4.77498L2.5 7.80298V14.11L12 19.29L21.5 14.109V7.80298L16.958 4.77498L12.772 7.28598L12 7.74998ZM12 5.99998L7.814 3.48798C7.317 3.18998 6.692 3.20498 6.21 3.52698L1.668 6.55498C1.251 6.83298 1 7.29998 1 7.80298V14.11C1 14.658 1.3 15.164 1.782 15.426L11.282 20.608C11.729 20.852 12.271 20.852 12.718 20.608L22.218 15.426C22.7 15.164 23 14.658 23 14.11V7.80298C23 7.30098 22.75 6.83298 22.332 6.55498L17.79 3.52698C17.308 3.20498 16.683 3.18998 16.186 3.48798L12 5.99998ZM15.5 12.25C15.5 12.94 14.94 13.5 14.25 13.5C13.56 13.5 13 12.94 13 12.25C13 11.56 13.56 11 14.25 11C14.94 11 15.5 11.56 15.5 12.25ZM7 7.99998C6.586 7.99998 6.25 8.33598 6.25 8.74998V10.25H4.75C4.336 10.25 4 10.586 4 11C4 11.414 4.336 11.75 4.75 11.75H6.25V13.25C6.25 13.664 6.586 14 7 14C7.414 14 7.75 13.664 7.75 13.25V11.75H9.25C9.664 11.75 10 11.414 10 11C10 10.586 9.664 10.25 9.25 10.25H7.75V8.74998C7.75 8.33598 7.414 7.99998 7 7.99998ZM17.75 11C18.44 11 19 10.44 19 9.74998C19 9.05998 18.44 8.49998 17.75 8.49998C17.06 8.49998 16.5 9.05998 16.5 9.74998C16.5 10.44 17.06 11 17.75 11Z" fill="#030303"/>
</svg>
