<svg width="24" height="24" viewBox="0 0 24 24" fill="none" xmlns="http://www.w3.org/2000/svg">
<path fill-rule="evenodd" clip-rule="evenodd" d="M14.203 4.82995C12.463 4.29595 10.589 4.41195 8.929 5.15695C7.575 5.76495 6.439 6.75695 5.656 7.99995H8.25C8.664 7.99995 9 8.33595 9 8.74995C9 9.16395 8.664 9.49995 8.25 9.49995H3V4.24995C3 3.83595 3.336 3.49995 3.75 3.49995C4.164 3.49995 4.5 3.83595 4.5 4.24995V7.02495C5.435 5.61495 6.754 4.48895 8.315 3.78895C10.307 2.89495 12.556 2.75595 14.643 3.39695C16.731 4.03795 18.513 5.41695 19.66 7.27495C20.806 9.13295 21.238 11.345 20.875 13.498C20.511 15.651 19.377 17.598 17.685 18.978C15.992 20.357 13.855 21.073 11.673 20.994C9.491 20.914 7.413 20.045 5.824 18.547C4.236 17.048 3.246 15.024 3.04 12.85C3.001 12.438 3.304 12.072 3.716 12.033C4.128 11.993 4.494 12.296 4.534 12.708C4.705 14.52 5.53 16.207 6.854 17.456C8.177 18.704 9.909 19.429 11.728 19.496C13.546 19.561 15.326 18.964 16.738 17.815C18.148 16.665 19.093 15.042 19.395 13.248C19.698 11.454 19.339 9.61095 18.383 8.06195C17.428 6.51395 15.943 5.36395 14.203 4.82995ZM12.75 7.49995C12.75 7.08595 12.414 6.74995 12 6.74995C11.586 6.74995 11.25 7.08595 11.25 7.49995V12.386L11.564 12.61L15.064 15.11C15.401 15.351 15.87 15.273 16.11 14.936C16.351 14.599 16.273 14.13 15.936 13.89L12.75 11.614V7.49995Z" fill="#030303"/>
</svg>
