<svg width="24" height="24" viewBox="0 0 24 24" fill="none" xmlns="http://www.w3.org/2000/svg">
<path fill-rule="evenodd" clip-rule="evenodd" d="M22.146 11.146C22.2161 11.2159 22.2638 11.3049 22.2832 11.402C22.3026 11.499 22.2928 11.5996 22.255 11.691C22.2172 11.7824 22.1532 11.8606 22.0709 11.9156C21.9887 11.9706 21.892 12 21.793 12H20V19.5C20 19.8978 19.842 20.2794 19.5607 20.5607C19.2794 20.842 18.8979 21 18.5 21H14V13H10V21H5.50005C5.10222 21 4.72069 20.842 4.43939 20.5607C4.15808 20.2794 4.00005 19.8978 4.00005 19.5V12H2.20705C2.10811 12 2.01141 11.9706 1.92917 11.9156C1.84694 11.8606 1.78287 11.7824 1.74507 11.691C1.70728 11.5996 1.69746 11.499 1.71686 11.402C1.73626 11.3049 1.784 11.2159 1.85405 11.146L12 1L22.146 11.146Z" fill="#030303"/>
</svg>
