<svg width="24" height="24" viewBox="0 0 24 24" fill="none" xmlns="http://www.w3.org/2000/svg">
<path fill-rule="evenodd" clip-rule="evenodd" d="M5.636 5.63598C5.929 5.34297 5.929 4.86798 5.636 4.57598C5.343 4.28198 4.868 4.28198 4.576 4.57598C3.6 5.54998 2.826 6.70797 2.299 7.98197C1.772 9.25597 1.5 10.622 1.5 12C1.5 13.379 1.772 14.744 2.3 16.018C2.827 17.292 3.6 18.45 4.575 19.425C4.868 19.718 5.343 19.718 5.636 19.425C5.929 19.132 5.929 18.657 5.636 18.364C4.8 17.528 4.137 16.536 3.686 15.444C3.232 14.352 3 13.182 3 12C3 10.818 3.233 9.64797 3.685 8.55597C4.137 7.46397 4.8 6.47198 5.636 5.63598ZM8.464 7.40397C8.757 7.69597 8.757 8.17097 8.464 8.46397C8 8.92797 7.632 9.47998 7.381 10.086C7.129 10.693 7 11.343 7 12C7 12.656 7.13 13.306 7.38 13.913C7.632 14.52 8 15.071 8.464 15.535C8.757 15.828 8.757 16.303 8.464 16.595C8.172 16.889 7.697 16.889 7.404 16.595C6.8 15.992 6.321 15.275 5.994 14.487C5.669 13.7 5.5 12.853 5.5 12C5.5 11.146 5.668 10.3 5.995 9.51197C6.321 8.72397 6.8 8.00697 7.404 7.40397C7.697 7.11097 8.172 7.11097 8.464 7.40397ZM15.536 7.40397C15.828 7.11097 16.303 7.11097 16.596 7.40397C17.816 8.62297 18.5 10.276 18.5 12C18.5 13.724 17.815 15.377 16.596 16.596C16.303 16.889 15.828 16.889 15.536 16.596C15.243 16.303 15.243 15.828 15.536 15.536C16.473 14.597 17 13.325 17 12C17 10.675 16.473 9.40197 15.536 8.46397C15.243 8.17097 15.243 7.69597 15.536 7.40397ZM18.364 4.57497C18.657 4.28197 19.132 4.28197 19.424 4.57497C21.395 6.54497 22.5 9.21497 22.5 12C22.5 14.785 21.394 17.456 19.425 19.425C19.132 19.718 18.657 19.718 18.364 19.425C18.071 19.132 18.071 18.657 18.364 18.364C20.052 16.676 21 14.387 21 12C21 9.61297 20.052 7.32397 18.364 5.63598C18.071 5.34297 18.071 4.86798 18.364 4.57598V4.57497ZM12 14C13.105 14 14 13.105 14 12C14 10.896 13.105 9.99997 12 9.99997C10.895 9.99997 10 10.896 10 12C10 13.105 10.895 14 12 14Z" fill="#030303"/>
</svg>
