<svg width="24" height="24" viewBox="0 0 24 24" fill="none" xmlns="http://www.w3.org/2000/svg">
<path fill-rule="evenodd" clip-rule="evenodd" d="M3.11601 5.99803L19.906 3.33803L20.063 4.32603L3.27301 6.98603L3.11601 5.99803ZM1.63501 6.23303C1.50501 5.41403 2.06301 4.64603 2.88201 4.51603L19.672 1.85703C20.491 1.72703 21.259 2.28603 21.388 3.10403L21.545 4.09203L21.779 5.57303L20.298 5.80803L6.46301 7.99903H22V19.499C22 20.328 21.328 20.999 20.5 20.999H3.50001C2.67201 20.999 2.00001 20.328 2.00001 19.499V8.53903L1.79001 7.22003L1.63401 6.23303H1.63501ZM9.33301 9.49903H7.33301L9.00001 11.999H6.00001L4.33301 9.49903H3.50001V19.499H20.5V9.49903H17.333L19 12H16L14.333 9.49903H12.333L14 12H11L9.33301 9.49903Z" fill="#030303"/>
</svg>
