<svg width="24" height="24" viewBox="0 0 24 24" fill="none" xmlns="http://www.w3.org/2000/svg">
<path fill-rule="evenodd" clip-rule="evenodd" d="M19 3.00001C19 2.72901 18.854 2.47901 18.617 2.34601C18.38 2.21301 18.09 2.21901 17.859 2.36001L8.859 7.86001C8.636 7.99601 8.5 8.23901 8.5 8.50001V16.401C8.059 16.146 7.546 16 7 16C5.343 16 4 17.343 4 19C4 20.657 5.343 22 7 22C8.657 22 10 20.657 10 19V11.92L17.5 7.33701V13.401C17.059 13.146 16.546 13 16 13C14.343 13 13 14.343 13 16C13 17.657 14.343 19 16 19C17.657 19 19 17.657 19 16V3.00001ZM17.5 16C17.5 15.172 16.828 14.5 16 14.5C15.172 14.5 14.5 15.172 14.5 16C14.5 16.828 15.172 17.5 16 17.5C16.828 17.5 17.5 16.828 17.5 16ZM8.5 19C8.5 18.172 7.828 17.5 7 17.5C6.172 17.5 5.5 18.172 5.5 19C5.5 19.828 6.172 20.5 7 20.5C7.828 20.5 8.5 19.828 8.5 19ZM17.5 5.58001L10 10.162V8.92001L17.5 4.33601V5.58001Z" fill="#030303"/>
</svg>
