<svg width="24" height="24" viewBox="0 0 24 24" fill="none" xmlns="http://www.w3.org/2000/svg">
<path fill-rule="evenodd" clip-rule="evenodd" d="M2 5.121V3L2.94 3.94L3.5 4.5L4 5L4.94 4.06L5.06 3.94L6 3L6.94 3.94L7.06 4.06L8 5L8.94 4.06L9.06 3.94L10 3L10.94 3.94L11.06 4.06L12 5L12.94 4.06L13.06 3.94L14 3L14.94 3.94L15.06 4.06L16 5L16.94 4.06L17.06 3.94L18 3L18.94 3.94L19.06 4.06L20 5L20.5 4.5L21.06 3.94L22 3V19C22 20.105 21.105 21 20 21H4C2.895 21 2 20.105 2 19V5.121ZM10.75 19.5H6.25V14.25H10.75V19.5ZM12 19.5V13H5V19.5H4C3.724 19.5 3.5 19.276 3.5 19V7.65L6.014 5.136L6.939 6.061L8 7.12L9.06 6.06L10 5.12L10.94 6.06L12 7.12L13.06 6.06L14 5.12L14.94 6.06L16 7.12L17.06 6.06L17.986 5.135L20.5 7.65V19C20.5 19.276 20.276 19.5 20 19.5H12ZM19 9V11H5V9H19ZM14 13H19V14.5H14V13ZM19 16H14V17.5H19V16Z" fill="#030303"/>
</svg>
