<svg width="24" height="24" viewBox="0 0 24 24" fill="none" xmlns="http://www.w3.org/2000/svg">
<path fill-rule="evenodd" clip-rule="evenodd" d="M3.167 2C2.247 2 1.5 2.748 1.5 3.672C1.5 5.81 4.5 7.351 4.5 7.351C4.5 7.351 7.5 5.81 7.5 3.671C7.5 2.749 6.753 2 5.833 2C5.288 2 4.804 2.263 4.5 2.669C4.196 2.263 3.712 2 3.167 2ZM16.5 19L18 17H21L22.5 19L19.5 22L16.5 19ZM12 9L14.5 10.5V13.5L12 15L9.5 13.5V10.5L12 9ZM12 5.75C12.69 5.75 13.25 5.19 13.25 4.5C13.25 3.81 12.69 3.25 12 3.25C11.31 3.25 10.75 3.81 10.75 4.5C10.75 5.19 11.31 5.75 12 5.75ZM12 7C13.38 7 14.5 5.88 14.5 4.5C14.5 3.12 13.38 2 12 2C10.62 2 9.5 3.12 9.5 4.5C9.5 5.88 10.62 7 12 7ZM13.25 19.5C13.25 20.19 12.69 20.75 12 20.75C11.31 20.75 10.75 20.19 10.75 19.5C10.75 18.81 11.31 18.25 12 18.25C12.69 18.25 13.25 18.81 13.25 19.5ZM14.5 19.5C14.5 20.88 13.38 22 12 22C10.62 22 9.5 20.88 9.5 19.5C9.5 18.12 10.62 17 12 17C13.38 17 14.5 18.12 14.5 19.5ZM4.5 20.75C5.19 20.75 5.75 20.19 5.75 19.5C5.75 18.81 5.19 18.25 4.5 18.25C3.81 18.25 3.25 18.81 3.25 19.5C3.25 20.19 3.81 20.75 4.5 20.75ZM4.5 22C5.88 22 7 20.88 7 19.5C7 18.12 5.88 17 4.5 17C3.12 17 2 18.12 2 19.5C2 20.88 3.12 22 4.5 22ZM20.75 4.5C20.75 5.19 20.19 5.75 19.5 5.75C18.81 5.75 18.25 5.19 18.25 4.5C18.25 3.81 18.81 3.25 19.5 3.25C20.19 3.25 20.75 3.81 20.75 4.5ZM22 4.5C22 5.88 20.88 7 19.5 7C18.12 7 17 5.88 17 4.5C17 3.12 18.12 2 19.5 2C20.88 2 22 3.12 22 4.5ZM19.5 13.25C20.19 13.25 20.75 12.69 20.75 12C20.75 11.31 20.19 10.75 19.5 10.75C18.81 10.75 18.25 11.31 18.25 12C18.25 12.69 18.81 13.25 19.5 13.25ZM19.5 14.5C20.88 14.5 22 13.38 22 12C22 10.62 20.88 9.5 19.5 9.5C18.12 9.5 17 10.62 17 12C17 13.38 18.12 14.5 19.5 14.5ZM5.75 12C5.75 12.69 5.19 13.25 4.5 13.25C3.81 13.25 3.25 12.69 3.25 12C3.25 11.31 3.81 10.75 4.5 10.75C5.19 10.75 5.75 11.31 5.75 12ZM7 12C7 13.38 5.88 14.5 4.5 14.5C3.12 14.5 2 13.38 2 12C2 10.62 3.12 9.5 4.5 9.5C5.88 9.5 7 10.62 7 12Z" fill="#030303"/>
</svg>
