<svg width="24" height="24" viewBox="0 0 24 24" fill="none" xmlns="http://www.w3.org/2000/svg">
<path fill-rule="evenodd" clip-rule="evenodd" d="M7.27802 4.933C8.67502 3.999 10.318 3.5 12 3.5C13.681 3.5 15.325 3.999 16.722 4.933C18.12 5.867 19.21 7.194 19.852 8.747C20.496 10.3 20.665 12.009 20.337 13.658C20.009 15.308 19.199 16.822 18.01 18.01C17.717 18.303 17.717 18.778 18.01 19.071C18.303 19.364 18.778 19.364 19.071 19.071C20.47 17.672 21.422 15.891 21.808 13.951C22.194 12.011 21.996 10.001 21.238 8.173C20.482 6.346 19.2 4.784 17.556 3.685C15.91 2.586 13.978 2 12 2C10.022 2 8.08902 2.586 6.44402 3.685C4.80002 4.785 3.51802 6.345 2.76102 8.173C2.00402 10 1.80602 12.011 2.19202 13.951C2.57802 15.891 3.53002 17.672 4.92902 19.071C5.22202 19.364 5.69702 19.364 5.98902 19.071C6.28202 18.778 6.28202 18.303 5.98902 18.011C4.80102 16.821 3.99102 15.307 3.66302 13.658C3.33502 12.009 3.50302 10.3 4.14702 8.748C4.79002 7.194 5.88102 5.867 7.27802 4.933ZM12 7.5C11.11 7.5 10.24 7.764 9.50002 8.258C8.76002 8.753 8.18302 9.456 7.84302 10.278C7.50202 11.1 7.41302 12.005 7.58602 12.878C7.76002 13.751 8.18902 14.553 8.81802 15.182C9.11102 15.475 9.11102 15.95 8.81802 16.242C8.52502 16.535 8.05002 16.535 7.75802 16.242C6.91802 15.403 6.34702 14.334 6.11502 13.17C5.88402 12.007 6.00302 10.8 6.45702 9.704C6.91102 8.608 7.68002 7.67 8.66702 7.01C9.65302 6.351 10.813 6 12 6C13.187 6 14.347 6.352 15.333 7.011C16.32 7.671 17.089 8.608 17.543 9.704C17.997 10.8 18.116 12.007 17.885 13.17C17.653 14.334 17.082 15.403 16.243 16.243C15.95 16.536 15.475 16.536 15.182 16.243C14.889 15.95 14.889 15.475 15.182 15.182C15.812 14.552 16.24 13.751 16.413 12.878C16.587 12.005 16.498 11.1 16.157 10.278C15.817 9.456 15.24 8.753 14.5 8.258C13.76 7.764 12.89 7.5 12 7.5ZM12.875 13.799C13.541 13.474 14 12.79 14 12C14 10.895 13.105 10 12 10C10.895 10 10 10.895 10 12C10 12.79 10.459 13.474 11.125 13.799V21C11.125 21.483 11.517 21.875 12 21.875C12.483 21.875 12.875 21.483 12.875 21V13.799Z" fill="#030303"/>
</svg>
