<svg width="24" height="24" viewBox="0 0 24 24" fill="none" xmlns="http://www.w3.org/2000/svg">
<path fill-rule="evenodd" clip-rule="evenodd" d="M16.296 16.996C14.7383 18.3719 12.7062 19.0877 10.6301 18.9916C8.55388 18.8956 6.59658 17.9953 5.17255 16.4814C3.74853 14.9675 2.96957 12.9589 3.00062 10.8807C3.03166 8.80253 3.87027 6.81802 5.33888 5.34733C6.80749 3.87664 8.79081 3.03524 10.8689 3.00125C12.947 2.96727 14.9568 3.74338 16.4727 5.16527C17.9886 6.58715 18.8917 8.54318 18.9906 10.6192C19.0896 12.6953 18.3768 14.7283 17.003 16.288L20.912 20.198L20.205 20.905L16.296 16.996ZM18 11C18 9.14346 17.2625 7.36298 15.9497 6.05023C14.637 4.73747 12.8565 3.99998 11 3.99998C9.14348 3.99998 7.363 4.73747 6.05025 6.05023C4.7375 7.36298 4 9.14346 4 11C4 11.9192 4.18106 12.8295 4.53284 13.6788C4.88462 14.528 5.40024 15.2997 6.05025 15.9497C6.70026 16.5997 7.47193 17.1153 8.32121 17.4671C9.17049 17.8189 10.0807 18 11 18C11.9193 18 12.8295 17.8189 13.6788 17.4671C14.5281 17.1153 15.2997 16.5997 15.9497 15.9497C16.5998 15.2997 17.1154 14.528 17.4672 13.6788C17.8189 12.8295 18 11.9192 18 11Z" fill="#0F0F0F"/>
</svg>
