<svg width="24" height="24" viewBox="0 0 24 24" fill="none" xmlns="http://www.w3.org/2000/svg">
<path fill-rule="evenodd" clip-rule="evenodd" d="M12 2.5C11.672 2.5 11.347 2.565 11.043 2.69C10.74 2.816 10.464 3 10.233 3.232C10 3.464 9.816 3.74 9.69 4.043C9.565 4.347 9.5 4.672 9.5 5V6H14.5V5C14.5 4.672 14.435 4.347 14.31 4.043C14.184 3.74 14 3.464 13.768 3.233C13.536 3 13.26 2.816 12.957 2.69C12.653 2.565 12.328 2.5 12 2.5ZM16 5V6H19.5C20.328 6 21 6.672 21 7.5V18C21 20.21 19.21 22 17 22H7C4.79 22 3 20.21 3 18V7.5C3 6.672 3.672 6 4.5 6H8V5C8 4.475 8.103 3.955 8.304 3.47C8.505 2.984 8.8 2.543 9.172 2.172C9.543 1.8 9.984 1.505 10.469 1.304C10.955 1.104 11.475 1 12 1C12.525 1 13.045 1.103 13.53 1.304C14.016 1.506 14.457 1.8 14.828 2.172C15.2 2.543 15.495 2.984 15.695 3.469C15.896 3.955 16 4.475 16 5ZM12 12.5C11.672 12.5 11.347 12.435 11.043 12.31C10.74 12.184 10.464 12 10.233 11.768C10 11.536 9.816 11.26 9.69 10.957C9.565 10.653 9.5 10.328 9.5 10C9.5 9.586 9.164 9.25 8.75 9.25C8.336 9.25 8 9.586 8 10C8 10.525 8.103 11.045 8.304 11.53C8.505 12.016 8.8 12.457 9.172 12.828C9.543 13.2 9.984 13.495 10.469 13.695C10.955 13.896 11.475 14 12 14C12.525 14 13.045 13.896 13.53 13.695C14.016 13.495 14.457 13.2 14.828 12.828C15.2 12.457 15.495 12.016 15.695 11.531C15.896 11.045 16 10.525 16 10C16 9.586 15.664 9.25 15.25 9.25C14.836 9.25 14.5 9.586 14.5 10C14.5 10.328 14.435 10.653 14.31 10.957C14.184 11.26 14 11.536 13.768 11.767C13.536 12 13.26 12.184 12.957 12.31C12.653 12.435 12.328 12.5 12 12.5ZM4.5 7.5H19.5V18C19.5 19.38 18.38 20.5 17 20.5H7C5.62 20.5 4.5 19.38 4.5 18V7.5Z" fill="#030303"/>
</svg>
