<svg width="24" height="24" viewBox="0 0 24 24" fill="none" xmlns="http://www.w3.org/2000/svg">
<path fill-rule="evenodd" clip-rule="evenodd" d="M7.61004 15.719L8.00204 15.499V13.259L7.46804 13.031L6.52604 12.627C5.65704 12.255 5.12604 11.477 5.08004 10.653C5.03304 9.82998 5.47004 9.01098 6.28304 8.55598L15.13 3.58998C16.361 2.90098 17.915 3.31998 18.596 4.42298C19.248 5.48098 18.909 6.87498 17.717 7.54098L16.39 8.28398L16.002 8.50098V10.744L16.532 10.971L17.474 11.375C18.343 11.747 18.874 12.525 18.92 13.349C18.967 14.172 18.53 14.991 17.717 15.446L17.715 15.447L8.87004 20.411L8.86904 20.412C7.63804 21.1 6.08504 20.681 5.40404 19.578C4.75204 18.52 5.09104 17.127 6.28304 16.46L7.61004 15.719ZM9.60304 21.721C7.69804 22.787 5.24704 22.181 4.12804 20.366C3.07104 18.653 3.58004 16.476 5.24504 15.341C5.34393 15.2736 5.44569 15.2105 5.55004 15.152L6.87704 14.41L5.93504 14.006C5.68625 13.8996 5.44873 13.7686 5.22604 13.615C4.26304 12.949 3.64804 11.897 3.58204 10.738C3.50204 9.31598 4.26104 7.96798 5.55004 7.24798L14.397 2.28198C16.302 1.21598 18.753 1.82198 19.872 3.63698C20.929 5.34998 20.42 7.52698 18.755 8.66198C18.6562 8.72977 18.5545 8.79317 18.45 8.85198L17.123 9.59398L18.065 9.99698C18.318 10.106 18.555 10.237 18.774 10.389C19.737 11.055 20.352 12.106 20.418 13.265C20.498 14.688 19.739 16.035 18.45 16.756L9.60304 21.721ZM10 14.567C10.0001 14.6108 10.0116 14.6538 10.0334 14.6917C10.0553 14.7296 10.0867 14.7612 10.1246 14.7831C10.1624 14.8051 10.2054 14.8168 10.2492 14.8169C10.293 14.817 10.336 14.8057 10.374 14.784L14.824 12.217C14.862 12.195 14.8936 12.1635 14.9155 12.1255C14.9375 12.0875 14.949 12.0444 14.949 12.0005C14.949 11.9566 14.9375 11.9135 14.9155 11.8755C14.8936 11.8375 14.862 11.8059 14.824 11.784L10.374 9.21698C10.3361 9.19531 10.2931 9.18396 10.2494 9.18406C10.2057 9.18417 10.1628 9.19572 10.125 9.21757C10.0872 9.23943 10.0557 9.27082 10.0338 9.30861C10.0119 9.34641 10.0002 9.38929 10 9.43298V14.567Z" fill="#030303"/>
</svg>
