<svg width="24" height="24" viewBox="0 0 24 24" fill="none" xmlns="http://www.w3.org/2000/svg">
<path fill-rule="evenodd" clip-rule="evenodd" d="M6.5 3.5H17.5V9C17.5 12.038 15.038 14.5 12 14.5C8.962 14.5 6.5 12.038 6.5 9V3.5ZM5 3.5C5 2.672 5.672 2 6.5 2H17.5C18.328 2 19 2.672 19 3.5V4H21C21.552 4 22 4.448 22 5V8C22 10.493 20.175 12.56 17.788 12.938C16.706 14.526 14.988 15.645 13 15.929V17.5H14.5C15.328 17.5 16 18.172 16 19V22H8V19C8 18.172 8.672 17.5 9.5 17.5H11V15.93C9.013 15.645 7.294 14.526 6.212 12.938C3.825 12.56 2 10.493 2 8V5C2 4.448 2.448 4 3 4H5V3.5ZM5 5.25H3.25V8C3.25 9.508 4.14 10.808 5.424 11.403C5.15 10.654 5 9.845 5 9V5.25ZM18.576 11.403C19.86 10.808 20.75 9.508 20.75 8V5.25H19V9C19 9.844 18.85 10.654 18.576 11.403ZM9.5 20.5V19H14.5V20.5H9.5Z" fill="#030303"/>
</svg>
