<svg xmlns="http://www.w3.org/2000/svg" viewBox="0 0 180 96" width="180" height="96" preserveAspectRatio="xMidYMid meet" style="width: 100%; height: 100%; transform: translate3d(0px, 0px, 0px);"><defs><clipPath id="__lottie_element_124"><rect width="180" height="96" x="0" y="0"/></clipPath><mask id="__lottie_element_125" mask-type="alpha"><g style="display: none;"><path fill="url(#__lottie_element_127)"/></g></mask><linearGradient id="__lottie_element_127" spreadMethod="pad" gradientUnits="userSpaceOnUse"><stop/><stop/></linearGradient><mask id="__lottie_element_130" mask-type="alpha"><g style="display: none;"><path fill="url(#__lottie_element_132)"/></g></mask><linearGradient id="__lottie_element_132" spreadMethod="pad" gradientUnits="userSpaceOnUse"><stop/><stop/></linearGradient></defs><g clip-path="url(#__lottie_element_124)"><g mask="url(#__lottie_element_130)" style="display: block;"><g transform="matrix(6.199999809265137,0,0,1.2000000476837158,90,48)" opacity="1"><path fill="rgb(255,39,145)" fill-opacity="1" d=" M50,-75 C50,-75 50,75 50,75 C50,75 -50,75 -50,75 C-50,75 -50,-75 -50,-75 C-50,-75 50,-75 50,-75z"/></g></g><g mask="url(#__lottie_element_125)" style="display: block;"><g transform="matrix(6.199999809265137,0,0,1.2000000476837158,90,48)" opacity="1"><path fill="rgb(255,39,145)" fill-opacity="1" d=" M50,-75 C50,-75 50,75 50,75 C50,75 -50,75 -50,75 C-50,75 -50,-75 -50,-75 C-50,-75 50,-75 50,-75z"/></g></g></g></svg>