<svg width="24" height="24" viewBox="0 0 24 24" fill="none" xmlns="http://www.w3.org/2000/svg">
<path fill-rule="evenodd" clip-rule="evenodd" d="M14 2L12.5 2.886L7.305 5.956C4.637 7.533 3 10.401 3 13.5C3 18.194 6.806 22 11.5 22C16.194 22 20 18.194 20 13.5V1L18.5 2L15.5 4L14 5V2ZM8.068 7.248L12.5 4.628V7.803L14.832 6.248L18.5 3.803V13.5C18.5 17.366 15.366 20.5 11.5 20.5C7.634 20.5 4.5 17.366 4.5 13.5C4.5 10.932 5.857 8.554 8.068 7.248ZM9 15C9 13.774 9.693 12.654 10.789 12.106L15 10V15C15 16.657 13.657 18 12 18C10.343 18 9 16.657 9 15Z" fill="#030303"/>
</svg>
